<svg width="205" height="155" viewBox="0 0 205 155" fill="none" xmlns="http://www.w3.org/2000/svg">
<mask id="path-1-inside-1" fill="white">
<path d="M22.8104 0.654739C20.1518 0.91391 17.0608 1.82103 14.9307 2.97292C13.8256 3.56326 12.4483 4.72954 12.16 5.34868C11.9678 5.72305 11.8077 5.82384 11.2791 5.89583C9.6936 6.12621 5.99399 7.00452 5.19321 7.33569C3.96001 7.86844 2.64673 8.78995 1.22134 10.129C-0.492335 11.7417 -0.412257 11.9576 1.66977 11.5113C2.6147 11.3097 2.63071 11.3097 3.0311 11.6553C3.57563 12.1304 5.80181 12.9223 8.12407 13.4839C9.77368 13.8871 10.2541 13.9446 12.192 13.9446C13.4092 13.959 14.4022 13.9734 14.4022 13.9734C14.4022 13.9878 13.9057 14.8661 13.2971 15.9173C11.3913 19.2145 10.7186 21.1008 10.7026 23.1454C10.7026 24.2396 10.7506 24.542 11.119 25.2043C11.9038 26.6442 13.6014 27.5801 15.6034 27.6809C16.7245 27.7241 16.9807 27.6953 17.6053 27.3929C18.5182 26.9466 19.287 26.0395 19.6233 25.0028C19.9596 23.9949 19.8475 20.8992 19.4471 19.5889C18.9987 18.1634 19.287 18.5522 19.8315 20.136C21.2569 24.2972 21.2729 25.3483 20.0717 32.7204C19.4311 36.608 17.8936 40.1501 14.9627 44.4121C12.5284 47.9685 11.9198 48.9188 11.119 50.3875C10.0299 52.4465 9.19712 54.4623 8.63657 56.4205C7.85181 59.1562 7.75571 59.9626 7.77173 63.3462C7.77173 66.8019 7.96391 67.997 8.95688 70.9055L9.42134 72.2734L9.10102 73.2813C8.94087 73.8284 8.79673 74.4331 8.79673 74.6203C8.79673 74.9659 8.79673 74.9659 9.37329 74.5195C9.6936 74.2604 10.0139 74.0732 10.094 74.102C10.1581 74.1308 10.5745 74.7931 11.0069 75.5706L11.7756 77.0105L10.9588 78.8823C9.91782 81.2581 9.53345 82.2804 9.66157 82.3812C9.80571 82.5252 10.7827 81.6324 11.9518 80.2934C12.5284 79.6454 13.0409 79.1127 13.0889 79.1127C13.185 79.1127 14.3862 80.6965 14.5303 81.0133C14.5784 81.1141 12.7045 82.0212 12.0159 82.2084C11.3752 82.3812 10.5264 82.7267 10.5745 82.7843C10.6065 82.7987 11.6795 82.6547 12.9608 82.4244C15.3471 82.0212 15.5233 82.0356 15.8596 82.5827C16.1319 83.0435 13.2331 84.8721 7.01899 88.1262C2.83891 90.3148 2.67876 90.4012 2.80688 90.5308C2.90298 90.6172 4.31235 90.286 7.27524 89.4653C9.22915 88.9181 15.6354 87.0895 16.1639 86.9167C16.292 86.8735 15.5393 87.3919 14.4823 88.0542C12.5284 89.2781 11.0389 90.4444 11.0389 90.7324C11.0389 91.3515 14.0018 90.7467 17.9256 89.3501C19.1588 88.9037 18.8866 89.0765 15.4592 90.9195C13.7936 91.8266 12.5124 92.5898 12.6084 92.6186C12.8487 92.6906 21.8975 90.2428 22.6022 89.9116L23.1948 89.6381L24.2838 90.286C24.8764 90.646 25.7092 91.1067 26.1256 91.2939C26.542 91.4811 26.8944 91.7115 26.8944 91.7979C26.8944 92.2874 28.0795 94.3608 29.2967 96.0022C31.1706 98.522 33.685 101.186 37.3846 104.584C40.9721 107.881 43.8549 110.242 48.4194 113.669L51.7666 116.175L52.3592 117.327C53.7526 120.005 55.21 124.065 55.8666 126.988C56.3792 129.306 56.5713 131.639 56.5713 135.699C56.5713 141.948 55.9467 145.173 54.6014 145.721C54.3772 145.821 52.4713 146.023 50.3573 146.196C44.912 146.642 43.8709 146.829 43.6307 147.492C43.5186 147.823 43.0541 147.88 39.6268 148.01C37.1924 148.111 34.1655 148.413 33.1725 148.644C32.0034 148.931 30.8182 149.939 30.4979 150.933L30.4018 151.25L31.0905 150.933C31.8752 150.559 31.9233 150.559 37.785 150.803C39.851 150.89 43.1182 150.962 45.0401 150.962C48.4354 150.962 48.5155 150.962 48.3553 151.235C48.1471 151.595 48.1471 152.69 48.3553 153.784C48.6276 155.137 48.5795 155.123 49.8448 154.029C50.9178 153.093 51.062 153.006 51.8788 152.905C52.4713 152.848 53.112 152.618 53.8327 152.229C54.7456 151.754 55.3061 151.581 57.1799 151.221C61.1518 150.487 61.9045 150.098 62.7694 148.298L63.2979 147.204L64.0346 147.852C65.2198 148.903 66.1487 149.119 67.8944 148.787C68.6631 148.644 68.7592 148.658 69.6561 149.075C70.1686 149.32 70.7612 149.522 70.9694 149.507H71.3377L70.9373 149.263C70.7131 149.133 70.2166 148.759 69.8483 148.442C69.1276 147.866 69.0956 147.736 69.4159 146.829C69.592 146.34 68.5991 145.85 66.485 145.418C64.2909 144.957 63.8264 144.669 63.5862 143.604C63.378 142.74 63.0416 138.133 63.1858 138.017C63.378 137.845 65.1397 137.945 65.428 138.147C65.5881 138.262 65.492 138.104 65.2198 137.773C64.9315 137.441 64.4991 136.837 64.2588 136.405C63.8584 135.685 63.8104 135.454 63.7624 133.611C63.6663 130.919 63.9706 127.636 64.5471 125.159C65.3639 121.589 65.1237 120.105 63.2499 117.082C62.7213 116.218 62.2889 115.498 62.2889 115.469C62.2889 115.44 62.7694 115.224 63.3459 114.98C66.1967 113.785 68.6311 111.51 70.0565 108.731C71.2416 106.398 72.3627 102.914 73.0194 99.4147C73.2116 98.4212 73.4038 97.5141 73.4518 97.3989C73.5799 97.0533 74.0444 98.0037 74.685 99.9187C75.4217 102.093 75.7741 102.755 76.5748 103.619C77.2955 104.397 79.2174 105.75 80.883 106.628C82.2764 107.377 82.4045 107.305 82.3565 105.851C82.3245 104.713 81.844 103.187 80.6428 100.437C80.0022 98.9828 79.9702 98.8388 80.2584 98.9252C80.7229 99.0547 80.851 98.7668 80.6588 98.1044C80.5788 97.7877 80.5307 97.4997 80.5788 97.4709C80.6268 97.4277 80.9791 97.4421 81.3795 97.4853L82.1163 97.5717L82.5166 98.8244C83.3975 101.445 83.7498 103.173 83.7498 104.814C83.7498 109.134 81.1553 114.188 76.6389 118.666C75.1174 120.192 74.9893 120.494 75.8702 120.609C76.1745 120.638 75.9663 120.825 74.669 121.689C72.9073 122.856 71.2577 124.137 71.2577 124.339C71.2577 125.001 74.7651 123.158 78.0963 120.739C80.1463 119.27 82.8209 116.765 83.862 115.354C85.4475 113.237 86.1522 110.458 86.2643 105.865C86.3604 102.611 86.1682 100.538 85.5916 98.0324C85.5276 97.7445 85.6077 97.7157 86.6807 97.6293C91.5174 97.2405 94.8006 95.1959 95.9538 91.8698C96.1459 91.3083 96.3541 90.7899 96.4182 90.7324C96.5623 90.574 98.212 90.8763 99.0928 91.2075C99.4772 91.3659 100.486 92.0858 101.415 92.8921C103.705 94.8648 104.074 95.1527 104.17 95.0663C104.218 95.0231 104.138 94.5912 104.01 94.116C103.689 93.0073 103.865 91.985 104.586 90.646L105.099 89.7101L105.403 90.07C107.053 91.9274 111.377 96.6502 112.642 97.9749C114.196 99.6019 114.596 99.9475 114.772 99.7891C114.932 99.6595 114.212 98.0324 112.898 95.5271C112.162 94.1304 111.505 92.6474 111.313 91.9274C110.928 90.5452 110.704 87.4495 110.928 86.8879C111.089 86.5424 111.121 86.5568 112.434 87.7662C115.06 90.1564 115.477 91.2075 115.573 96.0022C115.621 97.8165 115.685 99.2563 115.717 99.2275C115.749 99.1987 116.181 97.4709 116.662 95.3687C117.142 93.2809 117.591 91.4667 117.639 91.3515C117.783 91.0203 118.248 92.345 118.984 95.1815C119.801 98.3492 120.281 100.97 120.906 105.692C121.915 113.353 121.931 113.497 122.203 113.065C122.38 112.791 122.876 108.558 123.533 101.891C123.837 98.8532 124.125 96.3334 124.173 96.2902C124.221 96.2326 124.269 96.3334 124.269 96.5062C124.269 97.0965 125.374 101.79 125.775 102.942C126.239 104.267 126.576 104.771 126.912 104.656C127.473 104.454 127.937 101.762 128.065 98.0037C128.113 96.319 128.193 94.9799 128.241 95.0087C128.289 95.0519 128.626 97.1685 129.01 99.7027C129.731 104.541 129.779 104.814 129.939 104.454C130.083 104.094 131.316 93.3097 131.316 92.3162C131.316 89.4221 127.969 82.2516 122.716 73.8572C121.915 72.5901 121.306 71.5246 121.339 71.4814C121.387 71.4382 121.979 71.9422 122.684 72.5901C124.029 73.8572 125.166 75.3115 125.807 76.6073C126.431 77.8744 127.424 79.0695 128.978 80.4518C130.98 82.2228 134.648 84.6562 134.936 84.4114C134.984 84.3682 134.728 83.9794 134.375 83.5619C133.847 82.9283 130.179 76.6361 130.195 76.377C130.195 76.3338 130.724 76.7513 131.364 77.2985C131.989 77.8456 133.27 78.8247 134.199 79.5014C139.004 82.9427 141.726 84.0802 145.682 84.253C147.524 84.3394 149.382 84.1666 150.519 83.7922C151.128 83.5907 151.128 83.5907 149.894 83.2883C148.725 83.0003 146.948 82.1508 145.538 81.1861C144.785 80.6821 142.431 78.6519 140.093 76.4777L135.977 72.6621L138.331 71.8702C154.267 66.4707 157.774 65.29 157.95 65.29C158.062 65.29 158.943 65.9524 159.904 66.7587C163.283 69.552 165.446 71.0495 166.551 71.3374C166.967 71.4382 167.111 71.4094 167.383 71.1647C167.64 70.9343 167.688 70.7615 167.608 70.2719C167.448 69.2785 166.134 67.1619 164.469 65.1604C162.883 63.2886 162.883 63.2742 163.315 63.1878C164.597 62.9431 166.791 62.1799 167.64 61.7192C169.353 60.7689 169.914 60.2073 169.914 59.4586C169.914 58.9691 169.257 58.3067 168.408 57.918L167.944 57.702L168.376 57.6012C169.449 57.3564 171.628 58.7675 175.135 61.9928C177.601 64.2677 179.587 66.3123 181.573 68.6305C182.951 70.2432 183.431 70.6175 184.072 70.6175C184.953 70.6175 185.321 69.8976 185.417 68.0978C185.561 64.9157 184.136 60.7113 181.749 57.3564C179.812 54.6495 176.32 51.093 172.46 47.9253C170.555 46.3703 167.255 43.7929 166.727 43.4474C166.166 43.0874 169.145 43.6346 172.076 44.4409C175.439 45.348 176.961 45.276 180.228 44.0233C181.894 43.3898 184.488 42.0075 184.488 41.7627C184.488 41.2588 182.678 40.2509 180.708 39.6605C179.267 39.2142 173.149 37.9327 172.508 37.9327C172.06 37.9327 172.044 37.6879 172.476 37.5727C172.653 37.5295 172.797 37.3856 172.797 37.2704C172.797 36.9104 171.884 36.5504 169.546 36.0033C160.833 33.9587 153.578 32.0293 153.578 31.7701C153.578 31.6549 156.237 31.8565 158.671 32.1733C166.31 33.1668 175.231 35.2258 179.571 36.9824C181.509 37.7743 183.815 39.1422 185.689 40.6396C190.03 44.0953 194.194 49.7108 196.964 55.8446C197.893 57.8892 198.566 58.9547 198.918 58.9547C198.998 58.9547 199.174 58.7531 199.287 58.4939L199.511 58.0475L199.607 58.4651C199.783 59.2282 200.808 64.8869 201.305 67.8098C201.833 70.9919 202.33 72.8205 203.066 74.4187C203.675 75.7146 204.123 76.2042 204.444 75.9162C204.988 75.4267 205.132 72.3166 204.828 67.5074C204.123 56.5357 203.563 55.1102 196.18 45.6072C194.69 43.6921 191.887 41.0716 189.453 39.3006C180.612 32.9076 169.658 28.876 158.399 27.8537C156.269 27.6665 150.647 27.6665 148.373 27.8537C142.303 28.372 135.753 29.7399 128.754 31.9861C120.49 34.621 114.228 38.1343 107.949 43.6201C105.147 46.0823 102.536 48.7317 97.235 54.5199C92.3022 59.9194 92.11 60.1065 91.5014 60.1065C90.5245 60.1065 90.3963 59.4874 91.053 57.8748C91.2612 57.3132 91.4854 56.7373 91.5495 56.5789C91.6776 56.2045 90.7327 57.2988 89.7877 58.6379C88.9389 59.8042 87.978 60.5097 85.1913 61.9928C84.2623 62.4823 83.0772 63.2022 82.5487 63.5766C80.3385 65.1317 75.9022 69.552 72.3147 73.742L71.1936 75.0523L70.4409 74.4907C70.0405 74.1884 68.487 72.8205 66.9975 71.4382C60.303 65.2612 54.5374 57.4284 50.0209 48.3717C49.06 46.4279 47.4745 42.5547 47.6026 42.4395C47.6346 42.4251 48.035 42.8858 48.4995 43.4906C49.3483 44.5705 49.7967 44.8872 49.1721 43.9657C48.6276 43.1594 48.7877 43.1882 49.6366 44.0233C50.5815 44.9448 51.6065 45.4632 52.4073 45.3912L52.9678 45.348L52.2471 44.2681C50.9659 42.3243 48.8838 38.4799 47.8268 36.0609C46.6096 33.2964 45.8249 31.0646 43.3905 23.5053C40.6518 15.0389 39.2584 11.3385 37.7049 8.55957C36.6959 6.73096 35.8471 5.67986 34.2776 4.34079C30.8663 1.41786 27.1346 0.208389 22.8104 0.654739ZM11.5995 7.2925C11.6635 7.71005 11.8557 8.3868 12.0159 8.81874C12.3362 9.66826 13.3452 11.3673 13.6014 11.5113C13.9377 11.6985 13.7456 11.8569 13.3452 11.7273C11.5194 11.0937 7.30727 10.2874 5.88188 10.2874C4.95298 10.2874 2.63071 10.5898 1.86196 10.8058C1.2854 10.9641 1.65376 10.5322 2.90298 9.55307C4.61665 8.22841 5.70571 7.75325 8.54048 7.10532C9.86977 6.80295 11.0709 6.55817 11.2311 6.55817C11.4233 6.54376 11.5194 6.73096 11.5995 7.2925ZM9.83774 11.6265C10.8147 11.9 12.3041 12.3032 13.169 12.5192C14.0338 12.7496 14.6745 12.9799 14.6104 13.0375C14.3061 13.2967 12.2881 13.4551 11.0389 13.3255C8.92485 13.0807 5.91391 12.3032 4.39243 11.6121L3.59165 11.2377L4.07212 11.1369C4.34438 11.0649 5.35337 11.0505 6.31431 11.0793C7.75571 11.1225 8.39634 11.2233 9.83774 11.6265ZM25.469 33.1956C26.478 36.3201 26.6541 37.256 26.6381 39.6605C26.6221 41.2876 26.542 42.2667 26.3018 43.289C26.1256 44.0665 26.0456 44.7 26.1256 44.7C26.3018 44.7 27.8553 41.7771 28.544 40.1645C29.0245 39.0414 29.3288 38.1199 30.4979 34.3331L30.6901 33.6851L30.8663 34.2611C30.9624 34.5778 31.2346 35.8449 31.4588 37.0688C31.9553 39.7181 32.1956 40.5388 32.9163 41.9355C33.6049 43.3034 34.6139 44.5561 35.8792 45.6504C36.9522 46.5719 37.753 47.0614 37.5768 46.7015C36.4557 44.3689 35.719 42.0795 35.5909 40.5964C35.5108 39.6029 35.5588 39.2862 35.9112 38.3647C36.2795 37.3712 37.1124 35.8449 37.2245 35.9457C37.2565 35.9745 37.0963 36.4784 36.8721 37.0688C36.6479 37.6591 36.4397 38.595 36.3917 39.171C36.2795 40.5388 36.4717 41.3452 38.3616 47.0326C38.4417 47.263 38.3936 47.263 37.785 47.0758C36.4717 46.6583 34.2456 45.5208 33.4768 44.8728C32.3077 43.8649 31.4749 42.1803 30.562 38.9694C30.3538 38.2495 30.1456 37.6447 30.0975 37.6447C30.0495 37.6447 29.585 38.9262 29.0725 40.4957C28.544 42.0507 27.8874 43.7065 27.6311 44.1673C27.1506 44.9736 25.7252 46.4279 25.4049 46.4279C25.2928 46.4279 25.2768 44.8152 25.3249 41.7483C25.3889 39.171 25.3729 37.0688 25.3249 37.0688C25.2608 37.0688 24.6362 38.1487 23.9155 39.4878C22.4741 42.1515 21.8014 42.9578 20.0397 44.0809C19.0307 44.7288 15.3631 46.4711 15.235 46.3559C15.203 46.3271 15.6514 45.8087 16.244 45.204C17.6854 43.7209 19.319 41.446 19.8956 40.1069C20.328 39.1422 20.392 38.7822 20.4721 37.0688L20.5682 35.125L20.8565 35.8449C21.2569 36.824 21.385 38.5662 21.1288 39.6893C20.8885 40.8412 20.2159 42.1659 19.2709 43.3754C17.9256 45.1032 19.1268 43.8217 21.2729 41.2588C23.5311 38.5518 23.8995 37.9615 24.2518 36.5936C24.5081 35.5569 24.8124 33.21 24.8124 32.2309C24.8124 31.8565 24.8444 31.5829 24.9084 31.6261C24.9565 31.6693 25.2127 32.3748 25.469 33.1956ZM38.842 36.5072C39.0502 36.7952 39.4346 37.6735 39.7229 38.4511C40.2354 39.8909 41.869 43.2746 42.3334 43.8649C42.6538 44.2681 42.6538 44.2249 42.3495 42.0363C42.0612 39.9917 42.0612 38.6238 42.3174 37.3568C42.5096 36.4784 42.5096 36.5936 42.5096 39.1566C42.5096 41.4604 42.5577 42.0075 42.8139 42.6123C43.2944 43.8073 44.0151 45.0168 44.7678 45.8807C45.1522 46.3415 45.4245 46.7159 45.3764 46.7159C45.1041 46.7159 43.1823 45.3336 42.2534 44.4553C41.1643 43.433 40.4596 42.3531 39.5467 40.3085C39.1143 39.315 37.9452 35.9745 37.9452 35.7009C37.9452 35.5137 38.4577 35.9745 38.842 36.5072ZM44.5756 36.6512C44.8799 36.8816 45.3124 37.3712 45.5206 37.7167C45.9049 38.3071 46.962 40.9564 46.8659 41.0428C46.7698 41.1292 43.2463 36.4352 43.3264 36.3201C43.5026 36.0753 44.0311 36.2193 44.5756 36.6512ZM60.0467 102.77C60.5272 103.043 61.2799 103.374 61.7124 103.504C62.417 103.72 62.5291 103.72 62.8655 103.518C63.2338 103.302 63.3459 103.072 63.442 102.294L63.4901 101.934L63.7143 102.294C64.2108 103.086 63.8424 105.433 62.7534 108.486C62.0166 110.545 60.8155 113.237 60.6874 113.165C60.6073 113.122 60.2229 112.575 59.8065 111.941C58.317 109.667 57.3721 107.147 57.0198 104.526C56.8276 103.115 56.7795 100.811 56.9397 100.667C57.0038 100.624 57.5163 100.955 58.1088 101.416C58.6854 101.877 59.5663 102.482 60.0467 102.77Z"/>
</mask>
<path d="M22.8104 0.654739C20.1518 0.91391 17.0608 1.82103 14.9307 2.97292C13.8256 3.56326 12.4483 4.72954 12.16 5.34868C11.9678 5.72305 11.8077 5.82384 11.2791 5.89583C9.6936 6.12621 5.99399 7.00452 5.19321 7.33569C3.96001 7.86844 2.64673 8.78995 1.22134 10.129C-0.492335 11.7417 -0.412257 11.9576 1.66977 11.5113C2.6147 11.3097 2.63071 11.3097 3.0311 11.6553C3.57563 12.1304 5.80181 12.9223 8.12407 13.4839C9.77368 13.8871 10.2541 13.9446 12.192 13.9446C13.4092 13.959 14.4022 13.9734 14.4022 13.9734C14.4022 13.9878 13.9057 14.8661 13.2971 15.9173C11.3913 19.2145 10.7186 21.1008 10.7026 23.1454C10.7026 24.2396 10.7506 24.542 11.119 25.2043C11.9038 26.6442 13.6014 27.5801 15.6034 27.6809C16.7245 27.7241 16.9807 27.6953 17.6053 27.3929C18.5182 26.9466 19.287 26.0395 19.6233 25.0028C19.9596 23.9949 19.8475 20.8992 19.4471 19.5889C18.9987 18.1634 19.287 18.5522 19.8315 20.136C21.2569 24.2972 21.2729 25.3483 20.0717 32.7204C19.4311 36.608 17.8936 40.1501 14.9627 44.4121C12.5284 47.9685 11.9198 48.9188 11.119 50.3875C10.0299 52.4465 9.19712 54.4623 8.63657 56.4205C7.85181 59.1562 7.75571 59.9626 7.77173 63.3462C7.77173 66.8019 7.96391 67.997 8.95688 70.9055L9.42134 72.2734L9.10102 73.2813C8.94087 73.8284 8.79673 74.4331 8.79673 74.6203C8.79673 74.9659 8.79673 74.9659 9.37329 74.5195C9.6936 74.2604 10.0139 74.0732 10.094 74.102C10.1581 74.1308 10.5745 74.7931 11.0069 75.5706L11.7756 77.0105L10.9588 78.8823C9.91782 81.2581 9.53345 82.2804 9.66157 82.3812C9.80571 82.5252 10.7827 81.6324 11.9518 80.2934C12.5284 79.6454 13.0409 79.1127 13.0889 79.1127C13.185 79.1127 14.3862 80.6965 14.5303 81.0133C14.5784 81.1141 12.7045 82.0212 12.0159 82.2084C11.3752 82.3812 10.5264 82.7267 10.5745 82.7843C10.6065 82.7987 11.6795 82.6547 12.9608 82.4244C15.3471 82.0212 15.5233 82.0356 15.8596 82.5827C16.1319 83.0435 13.2331 84.8721 7.01899 88.1262C2.83891 90.3148 2.67876 90.4012 2.80688 90.5308C2.90298 90.6172 4.31235 90.286 7.27524 89.4653C9.22915 88.9181 15.6354 87.0895 16.1639 86.9167C16.292 86.8735 15.5393 87.3919 14.4823 88.0542C12.5284 89.2781 11.0389 90.4444 11.0389 90.7324C11.0389 91.3515 14.0018 90.7467 17.9256 89.3501C19.1588 88.9037 18.8866 89.0765 15.4592 90.9195C13.7936 91.8266 12.5124 92.5898 12.6084 92.6186C12.8487 92.6906 21.8975 90.2428 22.6022 89.9116L23.1948 89.6381L24.2838 90.286C24.8764 90.646 25.7092 91.1067 26.1256 91.2939C26.542 91.4811 26.8944 91.7115 26.8944 91.7979C26.8944 92.2874 28.0795 94.3608 29.2967 96.0022C31.1706 98.522 33.685 101.186 37.3846 104.584C40.9721 107.881 43.8549 110.242 48.4194 113.669L51.7666 116.175L52.3592 117.327C53.7526 120.005 55.21 124.065 55.8666 126.988C56.3792 129.306 56.5713 131.639 56.5713 135.699C56.5713 141.948 55.9467 145.173 54.6014 145.721C54.3772 145.821 52.4713 146.023 50.3573 146.196C44.912 146.642 43.8709 146.829 43.6307 147.492C43.5186 147.823 43.0541 147.88 39.6268 148.01C37.1924 148.111 34.1655 148.413 33.1725 148.644C32.0034 148.931 30.8182 149.939 30.4979 150.933L30.4018 151.25L31.0905 150.933C31.8752 150.559 31.9233 150.559 37.785 150.803C39.851 150.89 43.1182 150.962 45.0401 150.962C48.4354 150.962 48.5155 150.962 48.3553 151.235C48.1471 151.595 48.1471 152.69 48.3553 153.784C48.6276 155.137 48.5795 155.123 49.8448 154.029C50.9178 153.093 51.062 153.006 51.8788 152.905C52.4713 152.848 53.112 152.618 53.8327 152.229C54.7456 151.754 55.3061 151.581 57.1799 151.221C61.1518 150.487 61.9045 150.098 62.7694 148.298L63.2979 147.204L64.0346 147.852C65.2198 148.903 66.1487 149.119 67.8944 148.787C68.6631 148.644 68.7592 148.658 69.6561 149.075C70.1686 149.32 70.7612 149.522 70.9694 149.507H71.3377L70.9373 149.263C70.7131 149.133 70.2166 148.759 69.8483 148.442C69.1276 147.866 69.0956 147.736 69.4159 146.829C69.592 146.34 68.5991 145.85 66.485 145.418C64.2909 144.957 63.8264 144.669 63.5862 143.604C63.378 142.74 63.0416 138.133 63.1858 138.017C63.378 137.845 65.1397 137.945 65.428 138.147C65.5881 138.262 65.492 138.104 65.2198 137.773C64.9315 137.441 64.4991 136.837 64.2588 136.405C63.8584 135.685 63.8104 135.454 63.7624 133.611C63.6663 130.919 63.9706 127.636 64.5471 125.159C65.3639 121.589 65.1237 120.105 63.2499 117.082C62.7213 116.218 62.2889 115.498 62.2889 115.469C62.2889 115.44 62.7694 115.224 63.3459 114.98C66.1967 113.785 68.6311 111.51 70.0565 108.731C71.2416 106.398 72.3627 102.914 73.0194 99.4147C73.2116 98.4212 73.4038 97.5141 73.4518 97.3989C73.5799 97.0533 74.0444 98.0037 74.685 99.9187C75.4217 102.093 75.7741 102.755 76.5748 103.619C77.2955 104.397 79.2174 105.75 80.883 106.628C82.2764 107.377 82.4045 107.305 82.3565 105.851C82.3245 104.713 81.844 103.187 80.6428 100.437C80.0022 98.9828 79.9702 98.8388 80.2584 98.9252C80.7229 99.0547 80.851 98.7668 80.6588 98.1044C80.5788 97.7877 80.5307 97.4997 80.5788 97.4709C80.6268 97.4277 80.9791 97.4421 81.3795 97.4853L82.1163 97.5717L82.5166 98.8244C83.3975 101.445 83.7498 103.173 83.7498 104.814C83.7498 109.134 81.1553 114.188 76.6389 118.666C75.1174 120.192 74.9893 120.494 75.8702 120.609C76.1745 120.638 75.9663 120.825 74.669 121.689C72.9073 122.856 71.2577 124.137 71.2577 124.339C71.2577 125.001 74.7651 123.158 78.0963 120.739C80.1463 119.27 82.8209 116.765 83.862 115.354C85.4475 113.237 86.1522 110.458 86.2643 105.865C86.3604 102.611 86.1682 100.538 85.5916 98.0324C85.5276 97.7445 85.6077 97.7157 86.6807 97.6293C91.5174 97.2405 94.8006 95.1959 95.9538 91.8698C96.1459 91.3083 96.3541 90.7899 96.4182 90.7324C96.5623 90.574 98.212 90.8763 99.0928 91.2075C99.4772 91.3659 100.486 92.0858 101.415 92.8921C103.705 94.8648 104.074 95.1527 104.17 95.0663C104.218 95.0231 104.138 94.5912 104.01 94.116C103.689 93.0073 103.865 91.985 104.586 90.646L105.099 89.7101L105.403 90.07C107.053 91.9274 111.377 96.6502 112.642 97.9749C114.196 99.6019 114.596 99.9475 114.772 99.7891C114.932 99.6595 114.212 98.0324 112.898 95.5271C112.162 94.1304 111.505 92.6474 111.313 91.9274C110.928 90.5452 110.704 87.4495 110.928 86.8879C111.089 86.5424 111.121 86.5568 112.434 87.7662C115.06 90.1564 115.477 91.2075 115.573 96.0022C115.621 97.8165 115.685 99.2563 115.717 99.2275C115.749 99.1987 116.181 97.4709 116.662 95.3687C117.142 93.2809 117.591 91.4667 117.639 91.3515C117.783 91.0203 118.248 92.345 118.984 95.1815C119.801 98.3492 120.281 100.97 120.906 105.692C121.915 113.353 121.931 113.497 122.203 113.065C122.38 112.791 122.876 108.558 123.533 101.891C123.837 98.8532 124.125 96.3334 124.173 96.2902C124.221 96.2326 124.269 96.3334 124.269 96.5062C124.269 97.0965 125.374 101.79 125.775 102.942C126.239 104.267 126.576 104.771 126.912 104.656C127.473 104.454 127.937 101.762 128.065 98.0037C128.113 96.319 128.193 94.9799 128.241 95.0087C128.289 95.0519 128.626 97.1685 129.01 99.7027C129.731 104.541 129.779 104.814 129.939 104.454C130.083 104.094 131.316 93.3097 131.316 92.3162C131.316 89.4221 127.969 82.2516 122.716 73.8572C121.915 72.5901 121.306 71.5246 121.339 71.4814C121.387 71.4382 121.979 71.9422 122.684 72.5901C124.029 73.8572 125.166 75.3115 125.807 76.6073C126.431 77.8744 127.424 79.0695 128.978 80.4518C130.98 82.2228 134.648 84.6562 134.936 84.4114C134.984 84.3682 134.728 83.9794 134.375 83.5619C133.847 82.9283 130.179 76.6361 130.195 76.377C130.195 76.3338 130.724 76.7513 131.364 77.2985C131.989 77.8456 133.27 78.8247 134.199 79.5014C139.004 82.9427 141.726 84.0802 145.682 84.253C147.524 84.3394 149.382 84.1666 150.519 83.7922C151.128 83.5907 151.128 83.5907 149.894 83.2883C148.725 83.0003 146.948 82.1508 145.538 81.1861C144.785 80.6821 142.431 78.6519 140.093 76.4777L135.977 72.6621L138.331 71.8702C154.267 66.4707 157.774 65.29 157.95 65.29C158.062 65.29 158.943 65.9524 159.904 66.7587C163.283 69.552 165.446 71.0495 166.551 71.3374C166.967 71.4382 167.111 71.4094 167.383 71.1647C167.64 70.9343 167.688 70.7615 167.608 70.2719C167.448 69.2785 166.134 67.1619 164.469 65.1604C162.883 63.2886 162.883 63.2742 163.315 63.1878C164.597 62.9431 166.791 62.1799 167.64 61.7192C169.353 60.7689 169.914 60.2073 169.914 59.4586C169.914 58.9691 169.257 58.3067 168.408 57.918L167.944 57.702L168.376 57.6012C169.449 57.3564 171.628 58.7675 175.135 61.9928C177.601 64.2677 179.587 66.3123 181.573 68.6305C182.951 70.2432 183.431 70.6175 184.072 70.6175C184.953 70.6175 185.321 69.8976 185.417 68.0978C185.561 64.9157 184.136 60.7113 181.749 57.3564C179.812 54.6495 176.32 51.093 172.46 47.9253C170.555 46.3703 167.255 43.7929 166.727 43.4474C166.166 43.0874 169.145 43.6346 172.076 44.4409C175.439 45.348 176.961 45.276 180.228 44.0233C181.894 43.3898 184.488 42.0075 184.488 41.7627C184.488 41.2588 182.678 40.2509 180.708 39.6605C179.267 39.2142 173.149 37.9327 172.508 37.9327C172.06 37.9327 172.044 37.6879 172.476 37.5727C172.653 37.5295 172.797 37.3856 172.797 37.2704C172.797 36.9104 171.884 36.5504 169.546 36.0033C160.833 33.9587 153.578 32.0293 153.578 31.7701C153.578 31.6549 156.237 31.8565 158.671 32.1733C166.31 33.1668 175.231 35.2258 179.571 36.9824C181.509 37.7743 183.815 39.1422 185.689 40.6396C190.03 44.0953 194.194 49.7108 196.964 55.8446C197.893 57.8892 198.566 58.9547 198.918 58.9547C198.998 58.9547 199.174 58.7531 199.287 58.4939L199.511 58.0475L199.607 58.4651C199.783 59.2282 200.808 64.8869 201.305 67.8098C201.833 70.9919 202.33 72.8205 203.066 74.4187C203.675 75.7146 204.123 76.2042 204.444 75.9162C204.988 75.4267 205.132 72.3166 204.828 67.5074C204.123 56.5357 203.563 55.1102 196.18 45.6072C194.69 43.6921 191.887 41.0716 189.453 39.3006C180.612 32.9076 169.658 28.876 158.399 27.8537C156.269 27.6665 150.647 27.6665 148.373 27.8537C142.303 28.372 135.753 29.7399 128.754 31.9861C120.49 34.621 114.228 38.1343 107.949 43.6201C105.147 46.0823 102.536 48.7317 97.235 54.5199C92.3022 59.9194 92.11 60.1065 91.5014 60.1065C90.5245 60.1065 90.3963 59.4874 91.053 57.8748C91.2612 57.3132 91.4854 56.7373 91.5495 56.5789C91.6776 56.2045 90.7327 57.2988 89.7877 58.6379C88.9389 59.8042 87.978 60.5097 85.1913 61.9928C84.2623 62.4823 83.0772 63.2022 82.5487 63.5766C80.3385 65.1317 75.9022 69.552 72.3147 73.742L71.1936 75.0523L70.4409 74.4907C70.0405 74.1884 68.487 72.8205 66.9975 71.4382C60.303 65.2612 54.5374 57.4284 50.0209 48.3717C49.06 46.4279 47.4745 42.5547 47.6026 42.4395C47.6346 42.4251 48.035 42.8858 48.4995 43.4906C49.3483 44.5705 49.7967 44.8872 49.1721 43.9657C48.6276 43.1594 48.7877 43.1882 49.6366 44.0233C50.5815 44.9448 51.6065 45.4632 52.4073 45.3912L52.9678 45.348L52.2471 44.2681C50.9659 42.3243 48.8838 38.4799 47.8268 36.0609C46.6096 33.2964 45.8249 31.0646 43.3905 23.5053C40.6518 15.0389 39.2584 11.3385 37.7049 8.55957C36.6959 6.73096 35.8471 5.67986 34.2776 4.34079C30.8663 1.41786 27.1346 0.208389 22.8104 0.654739ZM11.5995 7.2925C11.6635 7.71005 11.8557 8.3868 12.0159 8.81874C12.3362 9.66826 13.3452 11.3673 13.6014 11.5113C13.9377 11.6985 13.7456 11.8569 13.3452 11.7273C11.5194 11.0937 7.30727 10.2874 5.88188 10.2874C4.95298 10.2874 2.63071 10.5898 1.86196 10.8058C1.2854 10.9641 1.65376 10.5322 2.90298 9.55307C4.61665 8.22841 5.70571 7.75325 8.54048 7.10532C9.86977 6.80295 11.0709 6.55817 11.2311 6.55817C11.4233 6.54376 11.5194 6.73096 11.5995 7.2925ZM9.83774 11.6265C10.8147 11.9 12.3041 12.3032 13.169 12.5192C14.0338 12.7496 14.6745 12.9799 14.6104 13.0375C14.3061 13.2967 12.2881 13.4551 11.0389 13.3255C8.92485 13.0807 5.91391 12.3032 4.39243 11.6121L3.59165 11.2377L4.07212 11.1369C4.34438 11.0649 5.35337 11.0505 6.31431 11.0793C7.75571 11.1225 8.39634 11.2233 9.83774 11.6265ZM25.469 33.1956C26.478 36.3201 26.6541 37.256 26.6381 39.6605C26.6221 41.2876 26.542 42.2667 26.3018 43.289C26.1256 44.0665 26.0456 44.7 26.1256 44.7C26.3018 44.7 27.8553 41.7771 28.544 40.1645C29.0245 39.0414 29.3288 38.1199 30.4979 34.3331L30.6901 33.6851L30.8663 34.2611C30.9624 34.5778 31.2346 35.8449 31.4588 37.0688C31.9553 39.7181 32.1956 40.5388 32.9163 41.9355C33.6049 43.3034 34.6139 44.5561 35.8792 45.6504C36.9522 46.5719 37.753 47.0614 37.5768 46.7015C36.4557 44.3689 35.719 42.0795 35.5909 40.5964C35.5108 39.6029 35.5588 39.2862 35.9112 38.3647C36.2795 37.3712 37.1124 35.8449 37.2245 35.9457C37.2565 35.9745 37.0963 36.4784 36.8721 37.0688C36.6479 37.6591 36.4397 38.595 36.3917 39.171C36.2795 40.5388 36.4717 41.3452 38.3616 47.0326C38.4417 47.263 38.3936 47.263 37.785 47.0758C36.4717 46.6583 34.2456 45.5208 33.4768 44.8728C32.3077 43.8649 31.4749 42.1803 30.562 38.9694C30.3538 38.2495 30.1456 37.6447 30.0975 37.6447C30.0495 37.6447 29.585 38.9262 29.0725 40.4957C28.544 42.0507 27.8874 43.7065 27.6311 44.1673C27.1506 44.9736 25.7252 46.4279 25.4049 46.4279C25.2928 46.4279 25.2768 44.8152 25.3249 41.7483C25.3889 39.171 25.3729 37.0688 25.3249 37.0688C25.2608 37.0688 24.6362 38.1487 23.9155 39.4878C22.4741 42.1515 21.8014 42.9578 20.0397 44.0809C19.0307 44.7288 15.3631 46.4711 15.235 46.3559C15.203 46.3271 15.6514 45.8087 16.244 45.204C17.6854 43.7209 19.319 41.446 19.8956 40.1069C20.328 39.1422 20.392 38.7822 20.4721 37.0688L20.5682 35.125L20.8565 35.8449C21.2569 36.824 21.385 38.5662 21.1288 39.6893C20.8885 40.8412 20.2159 42.1659 19.2709 43.3754C17.9256 45.1032 19.1268 43.8217 21.2729 41.2588C23.5311 38.5518 23.8995 37.9615 24.2518 36.5936C24.5081 35.5569 24.8124 33.21 24.8124 32.2309C24.8124 31.8565 24.8444 31.5829 24.9084 31.6261C24.9565 31.6693 25.2127 32.3748 25.469 33.1956ZM38.842 36.5072C39.0502 36.7952 39.4346 37.6735 39.7229 38.4511C40.2354 39.8909 41.869 43.2746 42.3334 43.8649C42.6538 44.2681 42.6538 44.2249 42.3495 42.0363C42.0612 39.9917 42.0612 38.6238 42.3174 37.3568C42.5096 36.4784 42.5096 36.5936 42.5096 39.1566C42.5096 41.4604 42.5577 42.0075 42.8139 42.6123C43.2944 43.8073 44.0151 45.0168 44.7678 45.8807C45.1522 46.3415 45.4245 46.7159 45.3764 46.7159C45.1041 46.7159 43.1823 45.3336 42.2534 44.4553C41.1643 43.433 40.4596 42.3531 39.5467 40.3085C39.1143 39.315 37.9452 35.9745 37.9452 35.7009C37.9452 35.5137 38.4577 35.9745 38.842 36.5072ZM44.5756 36.6512C44.8799 36.8816 45.3124 37.3712 45.5206 37.7167C45.9049 38.3071 46.962 40.9564 46.8659 41.0428C46.7698 41.1292 43.2463 36.4352 43.3264 36.3201C43.5026 36.0753 44.0311 36.2193 44.5756 36.6512ZM60.0467 102.77C60.5272 103.043 61.2799 103.374 61.7124 103.504C62.417 103.72 62.5291 103.72 62.8655 103.518C63.2338 103.302 63.3459 103.072 63.442 102.294L63.4901 101.934L63.7143 102.294C64.2108 103.086 63.8424 105.433 62.7534 108.486C62.0166 110.545 60.8155 113.237 60.6874 113.165C60.6073 113.122 60.2229 112.575 59.8065 111.941C58.317 109.667 57.3721 107.147 57.0198 104.526C56.8276 103.115 56.7795 100.811 56.9397 100.667C57.0038 100.624 57.5163 100.955 58.1088 101.416C58.6854 101.877 59.5663 102.482 60.0467 102.77Z" fill="#F77F00" stroke="#A39592" stroke-width="2" mask="url(#path-1-inside-1)"/>
</svg>
